<?xml version="1.0" encoding="UTF-8" standalone="no"?>
<!-- Created with Inkscape (http://www.inkscape.org/) -->

<svg
   width="32"
   height="32"
   viewBox="0 0 8.4666667 8.4666667"
   version="1.1"
   id="svg5"
   inkscape:version="1.1 (c4e8f9e, 2021-05-24)"
   sodipodi:docname="basic_target.svg"
   xmlns:inkscape="http://www.inkscape.org/namespaces/inkscape"
   xmlns:sodipodi="http://sodipodi.sourceforge.net/DTD/sodipodi-0.dtd"
   xmlns="http://www.w3.org/2000/svg"
   xmlns:svg="http://www.w3.org/2000/svg">
  <sodipodi:namedview
     id="namedview7"
     pagecolor="#ffffff"
     bordercolor="#666666"
     borderopacity="1.0"
     inkscape:pageshadow="2"
     inkscape:pageopacity="0.0"
     inkscape:pagecheckerboard="0"
     inkscape:document-units="mm"
     showgrid="false"
     units="px"
     inkscape:zoom="40.724553"
     inkscape:cx="15.43295"
     inkscape:cy="0.4297162"
     inkscape:window-width="1280"
     inkscape:window-height="747"
     inkscape:window-x="0"
     inkscape:window-y="25"
     inkscape:window-maximized="0"
     inkscape:current-layer="layer1" />
  <defs
     id="defs2" />
  <g
     inkscape:label="Layer 1"
     inkscape:groupmode="layer"
     id="layer1"
     style="display:inline">
    <path
       style="fill:#ffffff;stroke-width:0.0849147"
       d="M 13.071724,31.590961 C 9.822295,30.863055 7.4353705,29.619236 5.1491463,27.462528 2.3133621,24.787393 0.64287859,21.344442 0.24372306,17.352203 -0.03994079,14.515079 0.58743444,11.483846 2.0406983,8.669919 2.9054427,6.9955311 3.8005861,5.8103993 5.182275,4.5106055 7.222673,2.5911455 9.4055196,1.370505 12.095492,0.64475778 13.297124,0.3205608 13.638119,0.28953165 15.999246,0.28953165 c 2.380354,0 2.695932,0.0292807 3.94875,0.3663822 1.700338,0.45751785 4.036365,1.59113265 5.4536,2.64649425 5.87298,4.3733845 7.977468,12.1327259 5.13336,18.9269259 -1.439767,3.439416 -4.763524,6.796632 -8.205716,8.288323 -2.033986,0.881437 -3.444681,1.16601 -6.057667,1.221983 -1.68705,0.03614 -2.5548,-0.0042 -3.199849,-0.148679 z"
       id="path1352"
       transform="scale(0.26458333)" />
    <path
       style="fill:#ffffff;stroke:none;stroke-width:0.0229483"
       d="M 3.2342281,8.374411 C 2.6519121,8.2194778 2.2208124,8.014274 1.7554937,7.6705308 0.26600121,6.5702037 -0.35490216,4.6853629 0.20148816,2.953125 0.31255004,2.6073506 0.55195945,2.1081973 0.75418836,1.8007806 1.2369398,1.0669296 2.1798127,0.38362808 3.0972473,0.10276204 3.4122995,0.00631103 3.4637015,0.00159403 4.2163265,6.7362002e-5 5.1405322,-0.00180742 5.3125679,0.03339223 6.0009721,0.36521617 6.5069397,0.60910228 6.7886227,0.79959779 7.1406725,1.1359684 8.3243385,2.2669186 8.7577686,3.9492536 8.269142,5.5160596 7.8081251,6.9943322 6.3971133,8.2282818 4.9383211,8.4289092 4.7804648,8.4506196 4.4089673,8.4675921 4.1127708,8.4666275 3.6618698,8.4651638 3.5189021,8.450151 3.2342281,8.374411 Z"
       id="path1391" />
  </g>
</svg>
