<?xml version="1.0" encoding="UTF-8" standalone="no"?>
<!-- Created with Inkscape (http://www.inkscape.org/) -->

<svg
   width="32"
   height="32"
   viewBox="0 0 8.4666667 8.4666667"
   version="1.1"
   id="svg5"
   inkscape:version="1.1 (c4e8f9e, 2021-05-24)"
   sodipodi:docname="basic_target.svg"
   xmlns:inkscape="http://www.inkscape.org/namespaces/inkscape"
   xmlns:sodipodi="http://sodipodi.sourceforge.net/DTD/sodipodi-0.dtd"
   xmlns="http://www.w3.org/2000/svg"
   xmlns:svg="http://www.w3.org/2000/svg">
  <sodipodi:namedview
     id="namedview7"
     pagecolor="#ffffff"
     bordercolor="#666666"
     borderopacity="1.0"
     inkscape:pageshadow="2"
     inkscape:pageopacity="0.0"
     inkscape:pagecheckerboard="0"
     inkscape:document-units="mm"
     showgrid="false"
     units="px"
     inkscape:zoom="7.3440963"
     inkscape:cx="16.680065"
     inkscape:cy="21.445797"
     inkscape:window-width="1280"
     inkscape:window-height="747"
     inkscape:window-x="0"
     inkscape:window-y="25"
     inkscape:window-maximized="0"
     inkscape:current-layer="layer1" />
  <defs
     id="defs2" />
  <g
     inkscape:label="Layer 1"
     inkscape:groupmode="layer"
     id="layer1">
    <circle
       style="fill:#a05a2c;stroke-width:0.172341"
       id="path890"
       cx="4.2333331"
       cy="4.2333331"
       r="4.2333331" />
    <path
       style="fill:#ff00ff;stroke-width:0.0849147"
       d="M 13.820625,31.778501 C 10.169193,31.247977 7.059094,29.634677 4.4804116,26.933453 3.1890097,25.580682 2.4682381,24.525316 1.6129799,22.73491 -0.45588754,18.403923 -0.40068425,13.35167 1.7631981,8.9868103 2.7224409,7.0518807 3.5222757,5.9605553 5.0606817,4.4875967 7.8617961,1.8056486 11.199181,0.35651702 15.126419,0.11693514 21.089518,-0.24684464 26.841198,2.8998277 29.846635,8.1701804 c 2.715153,4.7613086 2.715153,10.8968216 0,15.6581306 -1.548306,2.715121 -3.994136,5.034092 -6.807179,6.454112 -2.649706,1.337567 -6.268152,1.924787 -9.218831,1.496078 z"
       id="path1073"
       transform="scale(0.26458333)" />
  </g>
</svg>
