<?xml version="1.0" encoding="UTF-8" standalone="no"?>
<svg
   viewBox="0 0 32 32"
   version="1.1"
   id="svg35"
   sodipodi:docname="slow_target.svg"
   width="32"
   height="32"
   inkscape:version="1.1.1 (3bf5ae0d25, 2021-09-20)"
   xmlns:inkscape="http://www.inkscape.org/namespaces/inkscape"
   xmlns:sodipodi="http://sodipodi.sourceforge.net/DTD/sodipodi-0.dtd"
   xmlns="http://www.w3.org/2000/svg"
   xmlns:svg="http://www.w3.org/2000/svg">
  <defs
     id="defs39" />
  <sodipodi:namedview
     id="namedview37"
     pagecolor="#ffffff"
     bordercolor="#666666"
     borderopacity="1.0"
     inkscape:pageshadow="2"
     inkscape:pageopacity="0.0"
     inkscape:pagecheckerboard="0"
     showgrid="false"
     inkscape:zoom="22.5"
     inkscape:cx="20.244444"
     inkscape:cy="17.822222"
     inkscape:window-width="1920"
     inkscape:window-height="1018"
     inkscape:window-x="2553"
     inkscape:window-y="-6"
     inkscape:window-maximized="1"
     inkscape:current-layer="svg35" />
  <path
     fill="#77b255"
     d="m 8.748315,11.041689 c 0,8.748601 5.844549,8.598375 4.58497,8.958382 -6.2223325,1.77781 -7.8250278,-6.771676 -8.4125938,-6.771676 -2.1138155,0 -4.9209767,-0.376007 -4.9209767,-2.186706 0,-1.812476 2.1867057,-4.375189 5.4676531,-4.375189 2.1147044,0 3.2809474,2.562713 3.2809474,4.375189 z m 23.251971,7.747694 c 0,0.981351 -3.127168,-0.658678 -4.444524,0 -1.777809,0.888905 -1.777809,-0.796459 -1.777809,-1.777809 0,-0.981351 1.193798,-0.888905 2.666713,-0.888905 1.472916,0 3.55562,1.684474 3.55562,2.666714 z"
     id="path25"
     style="stroke-width:0.888905" />
  <path
     fill="#77b255"
     d="m 14.857758,22.793899 c 0,2.454265 -1.136909,2.539601 -2.539601,2.539601 -1.402691,0 -2.5404903,-0.08622 -2.5404903,-2.539601 0,-0.434675 0.075556,-0.914684 0.2080037,-1.410692 0.6133436,-2.302264 2.4480436,-4.938755 3.6018416,-4.938755 1.402692,0 1.270245,3.895181 1.270246,6.349447 z m 7.618801,0 c 0,2.454265 1.13602,2.539601 2.538712,2.539601 1.403581,0 2.540491,-0.08622 2.540491,-2.539601 0,-0.434675 -0.07556,-0.914684 -0.208004,-1.410692 -0.614234,-2.302264 -2.448044,-4.938755 -3.601842,-4.938755 -1.402691,0 -1.269357,3.895181 -1.269357,6.349447 z"
     id="path27"
     style="stroke-width:0.888905" />
  <path
     fill="#3e721d"
     d="m 28.444665,17.333357 c 0,3.555619 -4.576969,3.555619 -10.222404,3.555619 -5.645434,0 -10.2224038,0 -10.2224038,-3.555619 0,-5.890772 4.5769708,-10.666857 10.2224038,-10.666857 5.645435,0 10.222404,4.776085 10.222404,10.666857 z"
     id="path29"
     style="stroke-width:0.888905" />
  <circle
     fill="#292f33"
     cx="4.4442382"
     cy="9.3332138"
     r="0.88890475"
     id="circle31"
     style="stroke-width:0.888905" />
  <path
     fill="#5c913b"
     d="m 21.037422,15.644438 c 0,3.192057 -1.260466,3.466728 -2.815161,3.466728 -1.554694,0 -2.815161,-0.27556 -2.815161,-3.466728 0,-3.191168 1.259578,-7.200128 2.815161,-7.200128 1.555584,0 2.815161,4.00896 2.815161,7.200128 z m 5.629435,-0.977795 c 0.774236,3.095166 -0.696902,3.555619 -2.251596,3.555619 -1.554695,0 -2.251596,0.613344 -2.251596,-2.577824 0,-3.191168 -0.992017,-5.777881 0.562676,-5.777881 1.553807,0 3.051612,1.244466 3.940516,4.800086 z m -12.385109,0.977795 c 0,3.192057 -0.697792,2.577824 -2.252485,2.577824 -1.554694,0 -3.0258323,-0.460453 -2.2515963,-3.555619 0.8889053,-3.55562 2.8898293,-4.800086 4.4445243,-4.800086 1.555583,0 0.05956,2.586713 0.05956,5.777881 z"
     id="path33"
     style="stroke-width:0.888905" />
</svg>
